<svg xmlns="http://www.w3.org/2000/svg" viewBox="0 0 2477.52 1803.82"><defs><style>.cls-1{fill:#00aef4;}.cls-2{fill:#fff;}</style></defs><g id="Layer_2" data-name="Layer 2"><path class="cls-1" d="M284.91,2106.4q-45.74,45.53-111.28,45.51T62.56,2106.4Q17,2060.91,17.05,1994.9t45.51-111.5q45.5-45.5,111.07-45.5t111.28,45.5q45.72,45.52,45.72,111.5T284.91,2106.4Zm-180.73-40.54q28,27.81,69.45,27.82t69.44-27.82q28-27.83,28-71t-28-71.17q-28-28-69.44-28t-69.45,28q-28,28.05-28,71.17T104.18,2065.86Z" transform="translate(-11.24 -348.09)"/><path class="cls-1" d="M485.05,1843.93q43.55,0,73.32,29.34t29.76,72q0,42.71-29.76,72t-73.32,29.33H432v99.21H372.47V1843.93Zm0,147.09q19,0,31.48-13.16T529,1945.3q0-19.83-12.51-32.78t-31.48-12.94H432V1991Z" transform="translate(-11.24 -348.09)"/><path class="cls-1" d="M821.06,1843.93v56.94H739.53v245H680v-245H598.92v-56.94Z" transform="translate(-11.24 -348.09)"/><path class="cls-1" d="M854.27,1843.93h59.52v301.94H854.27Z" transform="translate(-11.24 -348.09)"/><path class="cls-1" d="M1205.8,2145.87h-68.58l-107.84-141.48v141.48H969.86V1843.93h59.52v133.29l103.53-133.29h68.58l-111.72,146.66Z" transform="translate(-11.24 -348.09)"/><path class="cls-1" d="M1437,2145.87l-18.12-54.35H1298.53l-18.12,54.35h-64.27l105.67-301.94h73.76l106.11,301.94Zm-119.48-110h82.82l-41.41-123.36Z" transform="translate(-11.24 -348.09)"/><path class="cls-1" d="M1741.94,2151.91q-44.88,0-75.49-20.06a107.21,107.21,0,0,1-43.13-54.56l50.9-29.77q17.67,46.17,69.44,46.16,25,0,36.66-9.06t11.65-22.86q0-15.95-14.23-24.81t-50.91-19.19a310.92,310.92,0,0,1-34.28-12.08,147.13,147.13,0,0,1-28-16.17,65.83,65.83,0,0,1-21.35-25.67q-7.35-15.52-7.34-36.23,0-41,29.12-65.35T1735,1837.9q36.66,0,64.49,17.9t43.34,49.81l-50,28.91q-18.12-38.82-57.8-38.83-18.54,0-29.11,8.41a26.58,26.58,0,0,0-10.57,21.79q0,14.23,11.86,23.08t45.5,19.19q13.82,4.3,20.93,6.68t19.4,7.34a117.7,117.7,0,0,1,19,9.27,150.85,150.85,0,0,1,15.32,11.65,59.84,59.84,0,0,1,13.15,15.1,86.43,86.43,0,0,1,11,42.7q0,41.83-30.41,66.42T1741.94,2151.91Z" transform="translate(-11.24 -348.09)"/><path class="cls-1" d="M2115.9,1843.93l-103.52,184.19v117.75h-59.09V2028.12L1850.2,1843.93h67.29l65.56,126,65.56-126Z" transform="translate(-11.24 -348.09)"/><path class="cls-1" d="M2310.42,2145.87l-60.82-104.82h-45.28v104.82h-59.53V1843.93h120.77q41.83,0,71.17,29.34t29.34,70.73a91.92,91.92,0,0,1-16,52,100,100,0,0,1-42.27,36l66.85,113.87Zm-106.1-246.29v89.28h61.24q16.83,0,28.9-13.15t12.08-31.71q0-18.52-12.08-31.48t-28.9-12.94Z" transform="translate(-11.24 -348.09)"/><path class="cls-1" d="M2409.63,1843.93h59.52v301.94h-59.52Z" transform="translate(-11.24 -348.09)"/><path class="cls-1" d="M2488.76,930.49C1172.08-325.77,11.24,841.43,11.24,841.43,1267.49-138.12,2225.58,983.76,2225.58,983.76c-258.38,257.25-487.64,377.69-657.18,433.3,114.14-90.12,187.48-229.61,187.48-386.33,0-271.77-220.32-492.09-492.1-492.09S771.68,759,771.68,1030.73c0,271.16,219.33,491.05,490.25,492.05v0l.47,0c.47,0,.92,0,1.38,0a494.42,494.42,0,0,0,94.74-9.2C2008.89,1429.86,2488.76,930.49,2488.76,930.49Z" transform="translate(-11.24 -348.09)"/><circle class="cls-2" cx="1252.54" cy="682.64" r="419.08"/><circle cx="1252.54" cy="682.64" r="375.35"/><circle class="cls-2" cx="1400.89" cy="496.92" r="159.81"/></g></svg>